<svg width="458" height="53" viewBox="0 0 458 53" fill="none" 
    xmlns="http://www.w3.org/2000/svg">
    <path d="M5.128 19.528C3.784 19.528 2.608 17.944 1.6 14.776C0.64 11.608 0.16 8.56 0.16 5.632C0.16 4.96 0.904 4.216 2.392 3.4C3.88 2.536 6.136 1.768 9.16 1.096C12.184 0.423999 15.472 0.0879989 19.024 0.0879989C32.8 0.0879989 39.688 4.912 39.688 14.56C39.688 17.248 39.112 19.768 37.96 22.12C36.808 24.472 35.536 26.368 34.144 27.808C32.752 29.2 31.12 30.496 29.248 31.696C27.088 33.04 25.024 34.096 23.056 34.864H37.456C37.744 34.864 38.056 35.008 38.392 35.296C38.728 35.536 39.088 36.304 39.472 37.6C39.856 38.848 40.048 40.432 40.048 42.352C40.048 44.224 39.928 45.808 39.688 47.104C39.448 48.352 39.16 49.264 38.824 49.84C38.104 51.136 37.456 51.832 36.88 51.928L36.52 52H4.984C1.96 52 0.448 47.272 0.448 37.816C0.448 36.76 3.568 33.856 9.808 29.104C12.16 27.376 14.32 25.48 16.288 23.416C18.256 21.352 19.24 19.672 19.24 18.376C19.24 16.936 18.16 16.216 16 16.216C13.84 16.216 11.56 16.768 9.16 17.872C6.808 18.976 5.464 19.528 5.128 19.528ZM65.1946 49.912C65.1946 50.536 63.7066 51.04 60.7306 51.424C57.8026 51.808 54.8746 52 51.9466 52C49.0186 52 47.1466 51.832 46.3306 51.496C45.5146 51.16 45.1066 50.632 45.1066 49.912V5.704C45.1066 4.504 46.4746 3.4 49.2106 2.392C51.9946 1.384 55.1386 0.879997 58.6426 0.879997C59.8906 0.879997 60.8266 0.927998 61.4506 1.024C63.0826 1.264 64.2346 2.296 64.9066 4.12L71.8186 22.696H72.1066V5.704C72.1066 4.504 73.4746 3.4 76.2106 2.392C78.9466 1.384 82.0666 0.879997 85.5706 0.879997C88.5946 0.879997 90.5146 1.456 91.3306 2.608C91.9066 3.424 92.1946 4.168 92.1946 4.84V49.912C92.1946 50.536 90.7066 51.04 87.7306 51.424C84.8026 51.808 81.5626 52 78.0106 52C74.5066 52 72.5866 51.544 72.2506 50.632L65.5546 32.92H65.1946V49.912ZM120.95 52H103.958C101.606 52 100.022 51.832 99.2056 51.496C98.3896 51.16 97.9816 50.608 97.9816 49.84V4.408C97.9816 3.16 98.5096 2.272 99.5656 1.744C100.622 1.168 102.446 0.879997 105.038 0.879997H121.238C130.454 0.879997 136.814 2.704 140.318 6.352C143.822 9.952 145.574 16.528 145.574 26.08C145.574 35.632 143.75 42.352 140.102 46.24C136.454 50.08 130.07 52 120.95 52ZM120.374 11.608C119.222 11.608 118.454 11.704 118.07 11.896V40.984L120.806 41.272C122.246 41.272 123.326 40.12 124.046 37.816C124.814 35.512 125.198 31.528 125.198 25.864C125.198 20.2 124.814 16.408 124.046 14.488C123.278 12.568 122.054 11.608 120.374 11.608ZM170.734 49.768C170.734 50.392 169.246 50.896 166.27 51.28C163.342 51.664 160.414 51.856 157.486 51.856C154.558 51.856 152.686 51.688 151.87 51.352C151.054 51.016 150.646 50.488 150.646 49.768V5.632C150.646 4.384 151.99 3.28 154.678 2.32C157.414 1.36 160.558 0.879997 164.11 0.879997C167.038 0.879997 168.934 1.456 169.798 2.608C170.422 3.424 170.734 4.168 170.734 4.84V16.72H171.31C171.31 16.48 172.03 14.488 173.47 10.744C176.206 3.688 178.198 0.159998 179.446 0.159998C181.798 0.159998 185.11 0.855998 189.382 2.248C191.446 2.92 193.222 3.904 194.71 5.2C196.198 6.448 196.942 7.84 196.942 9.376C196.942 10.336 195.958 12.208 193.99 14.992C192.07 17.728 189.142 21.4 185.206 26.008C186.118 26.968 187.27 28.192 188.662 29.68C190.054 31.168 191.902 33.4 194.206 36.376C196.558 39.304 197.734 41.392 197.734 42.64C197.734 43.888 196.606 45.352 194.35 47.032C192.094 48.664 189.694 50.008 187.15 51.064C184.606 52.072 182.71 52.576 181.462 52.576C180.646 52.576 179.518 51.352 178.078 48.904C176.686 46.408 174.982 42.688 172.966 37.744L170.734 40.408V49.768ZM226.029 52.648C222.045 52.648 218.613 52.288 215.733 51.568C212.901 50.8 210.285 49.456 207.885 47.536C203.037 43.744 200.613 36.472 200.613 25.72C200.613 21.208 201.261 17.272 202.557 13.912C203.901 10.552 205.749 7.888 208.101 5.92C212.709 2.08 218.685 0.159998 226.029 0.159998C229.821 0.159998 233.109 0.495998 235.893 1.168C238.725 1.84 241.389 3.064 243.885 4.84C248.925 8.488 251.445 15.448 251.445 25.72C251.445 34.936 249.165 41.728 244.605 46.096C240.045 50.464 233.853 52.648 226.029 52.648ZM223.653 40.336C224.229 41.008 225.021 41.344 226.029 41.344C227.037 41.344 227.829 41.008 228.405 40.336C228.981 39.616 229.461 38.128 229.845 35.872C230.229 33.568 230.421 30.376 230.421 26.296C230.421 22.216 230.229 19.072 229.845 16.864C229.461 14.656 228.981 13.216 228.405 12.544C227.829 11.872 227.037 11.536 226.029 11.536C225.021 11.536 224.229 11.872 223.653 12.544C223.077 13.216 222.597 14.656 222.213 16.864C221.829 19.072 221.637 22.216 221.637 26.296C221.637 30.376 221.829 33.568 222.213 35.872C222.597 38.128 223.077 39.616 223.653 40.336ZM262.162 52C259.762 52 258.154 51.88 257.338 51.64C256.522 51.352 256.114 50.896 256.114 50.272V5.488C256.114 4.432 257.506 3.4 260.29 2.392C263.074 1.336 266.194 0.807998 269.65 0.807998C272.722 0.807998 274.738 1.456 275.698 2.752C276.034 3.232 276.202 3.712 276.202 4.192V36.088C282.058 35.704 286.474 35.512 289.45 35.512C290.458 35.512 290.962 37.12 290.962 40.336C290.962 43.504 290.746 46.24 290.314 48.544C289.882 50.848 289.306 52 288.586 52H262.162ZM331.782 52H301.254C298.902 52 297.318 51.832 296.502 51.496C295.686 51.16 295.278 50.632 295.278 49.912V4.336C295.278 3.088 295.83 2.2 296.934 1.672C298.086 1.144 300.126 0.879997 303.054 0.879997H331.998C333.006 0.879997 333.51 2.56 333.51 5.92C333.51 9.232 333.294 11.776 332.862 13.552C332.43 15.28 331.854 16.144 331.134 16.144C328.014 16.144 322.758 15.832 315.366 15.208V20.032C322.47 19.744 327.102 19.6 329.262 19.6C330.558 19.6 331.206 21.112 331.206 24.136C331.206 27.16 330.942 29.464 330.414 31.048C329.934 32.584 329.262 33.352 328.398 33.352L315.366 33.064V37.672C323.718 37.048 329.478 36.736 332.646 36.736C333.654 36.736 334.158 38.416 334.158 41.776C334.158 45.136 333.942 47.68 333.51 49.408C333.078 51.136 332.502 52 331.782 52ZM359.312 49.768C359.312 50.392 357.824 50.896 354.848 51.28C351.92 51.664 348.992 51.856 346.064 51.856C343.136 51.856 341.264 51.688 340.448 51.352C339.632 51.016 339.224 50.488 339.224 49.768V5.632C339.224 4.384 340.568 3.28 343.256 2.32C345.992 1.36 349.136 0.879997 352.688 0.879997C355.616 0.879997 357.512 1.456 358.376 2.608C359 3.424 359.312 4.168 359.312 4.84V16.72H359.888C359.888 16.48 360.608 14.488 362.048 10.744C364.784 3.688 366.776 0.159998 368.024 0.159998C370.376 0.159998 373.688 0.855998 377.96 2.248C380.024 2.92 381.8 3.904 383.288 5.2C384.776 6.448 385.52 7.84 385.52 9.376C385.52 10.336 384.536 12.208 382.568 14.992C380.648 17.728 377.72 21.4 373.784 26.008C374.696 26.968 375.848 28.192 377.24 29.68C378.632 31.168 380.48 33.4 382.784 36.376C385.136 39.304 386.312 41.392 386.312 42.64C386.312 43.888 385.184 45.352 382.928 47.032C380.672 48.664 378.272 50.008 375.728 51.064C373.184 52.072 371.288 52.576 370.04 52.576C369.224 52.576 368.096 51.352 366.656 48.904C365.264 46.408 363.56 42.688 361.544 37.744L359.312 40.408V49.768ZM426.919 48.976C425.479 50.032 423.463 50.92 420.871 51.64C418.327 52.312 415.015 52.648 410.935 52.648C406.903 52.648 403.063 52.312 399.415 51.64C395.767 50.968 393.151 50.224 391.567 49.408C389.983 48.592 389.191 47.8 389.191 47.032C389.191 44.344 389.575 41.56 390.343 38.68C391.111 35.752 392.023 34.288 393.079 34.288C393.271 34.288 395.263 34.936 399.055 36.232C402.847 37.528 405.703 38.176 407.623 38.176C409.543 38.176 410.791 37.984 411.367 37.6C411.943 37.168 412.231 36.568 412.231 35.8C412.231 35.032 411.703 34.36 410.647 33.784C409.591 33.16 408.271 32.632 406.687 32.2C405.103 31.72 403.375 31.048 401.503 30.184C399.679 29.32 397.975 28.36 396.391 27.304C394.807 26.248 393.487 24.76 392.431 22.84C391.375 20.872 390.847 18.64 390.847 16.144C390.847 5.488 397.207 0.159998 409.927 0.159998C414.679 0.159998 418.783 0.471998 422.239 1.096C425.695 1.672 428.119 2.344 429.511 3.112C430.951 3.832 431.671 4.552 431.671 5.272C431.671 7.768 431.071 10.456 429.871 13.336C428.719 16.216 427.591 17.656 426.487 17.656C426.295 17.656 425.671 17.44 424.615 17.008C421.447 15.616 418.807 14.92 416.695 14.92C414.631 14.92 413.215 15.112 412.447 15.496C411.727 15.88 411.367 16.48 411.367 17.296C411.367 18.064 411.895 18.712 412.951 19.24C414.007 19.72 415.303 20.176 416.839 20.608C418.423 20.992 420.127 21.616 421.951 22.48C423.823 23.296 425.551 24.28 427.135 25.432C428.719 26.536 430.039 28.12 431.095 30.184C432.151 32.248 432.679 34.648 432.679 37.384C432.679 40.264 431.935 42.88 430.447 45.232C429.535 46.672 428.359 47.92 426.919 48.976ZM457.468 50.272C457.468 50.8 456.004 51.232 453.076 51.568C450.148 51.856 447.196 52 444.22 52C441.292 52 439.42 51.88 438.604 51.64C437.788 51.352 437.38 50.896 437.38 50.272V5.488C437.38 4.432 438.772 3.4 441.556 2.392C444.34 1.336 447.46 0.807998 450.916 0.807998C453.988 0.807998 456.004 1.456 456.964 2.752C457.3 3.232 457.468 3.712 457.468 4.192V50.272Z" fill="black"/>
</svg>
