<svg width="40" height="40" viewBox="0 0 106 89" fill="none" xmlns="http://www.w3.org/2000/svg">
<mask id="path-1-outside-1" maskUnits="userSpaceOnUse" x="0" y="0" width="106" height="89" fill="black">
<rect fill="white" width="106" height="89"/>
<path fill-rule="evenodd" clip-rule="evenodd" d="M5 46C7 42 11 37 18 39C24 41 28 47 31 55C55 28 75 9 99 3C102 3 103 3 101 5C75 23 50 50 30 85C29 86 28 86 27 85C25.6667 81.6667 24.4445 78.3334 23.2223 75.0002L23.2222 75C20.7778 68.3333 18.3333 61.6667 15 55C13 50 10 46 5 46Z"/>
</mask>
<path fill-rule="evenodd" clip-rule="evenodd" d="M5 46C7 42 11 37 18 39C24 41 28 47 31 55C55 28 75 9 99 3C102 3 103 3 101 5C75 23 50 50 30 85C29 86 28 86 27 85C25.6667 81.6667 24.4445 78.3334 23.2223 75.0002L23.2222 75C20.7778 68.3333 18.3333 61.6667 15 55C13 50 10 46 5 46Z" fill="#FFD700"/>
<path d="M18 39L18.9487 36.154L18.8868 36.1333L18.8242 36.1154L18 39ZM5 46L2.31672 44.6584L0.145898 49H5V46ZM31 55L28.191 56.0534L29.9376 60.7108L33.2422 56.9931L31 55ZM99 3V0H98.6307L98.2724 0.0895725L99 3ZM101 5L102.708 7.46658L102.93 7.3126L103.121 7.12132L101 5ZM30 85L32.1213 87.1213L32.4054 86.8372L32.6047 86.4884L30 85ZM27 85L24.2146 86.1142L24.4433 86.6859L24.8787 87.1213L27 85ZM23.2223 75.0002L26.0389 73.9674L26.0271 73.9352L26.0145 73.9032L23.2223 75.0002ZM23.2222 75L20.4056 76.0328L20.4174 76.065L20.43 76.0969L23.2222 75ZM15 55L12.2146 56.1142L12.2609 56.23L12.3167 56.3416L15 55ZM18.8242 36.1154C14.4101 34.8543 10.7264 35.8005 7.89495 37.7991C5.19677 39.7037 3.4223 42.4472 2.31672 44.6584L7.68328 47.3416C8.5777 45.5528 9.80323 43.7963 11.355 42.7009C12.7736 41.6995 14.5899 41.1457 17.1758 41.8846L18.8242 36.1154ZM33.809 53.9466C30.7523 45.7953 26.3255 38.6129 18.9487 36.154L17.0513 41.846C21.6745 43.3871 25.2477 48.2047 28.191 56.0534L33.809 53.9466ZM98.2724 0.0895725C73.2613 6.34236 52.7053 26.066 28.7578 53.0069L33.2422 56.9931C57.2947 29.934 76.7387 11.6576 99.7276 5.91043L98.2724 0.0895725ZM103.121 7.12132C103.621 6.6215 104.256 5.94586 104.636 5.18539C104.835 4.78873 105.142 4.02587 105.008 3.07234C104.853 1.96153 104.194 1.19044 103.539 0.753849C102.98 0.38091 102.413 0.235327 102.086 0.167687C101.722 0.0923753 101.36 0.0573071 101.053 0.0374741C100.449 -0.00144188 99.7119 0 99 0V6C99.7881 6 100.301 6.00144 100.666 6.02503C100.843 6.03644 100.895 6.04825 100.871 6.04325C100.854 6.03979 100.786 6.02512 100.685 5.98868C100.587 5.95325 100.414 5.88131 100.211 5.74615C99.7435 5.43456 99.1943 4.81972 99.0661 3.90422C98.9599 3.146 99.2121 2.61752 99.2698 2.50211C99.3432 2.35548 99.3878 2.32113 99.2989 2.42859C99.2225 2.52111 99.0906 2.66673 98.8787 2.87868L103.121 7.12132ZM32.6047 86.4884C52.4053 51.8375 77.1119 25.1867 102.708 7.46658L99.2924 2.53342C72.8881 20.8133 47.5947 48.1625 27.3953 83.5116L32.6047 86.4884ZM24.8787 87.1213C25.7057 87.9483 26.9237 88.75 28.5 88.75C30.0763 88.75 31.2943 87.9483 32.1213 87.1213L27.8787 82.8787C27.7057 83.0517 27.9237 82.75 28.5 82.75C29.0763 82.75 29.2943 83.0517 29.1213 82.8787L24.8787 87.1213ZM20.4057 76.0329C21.6255 79.3597 22.8624 82.7338 24.2146 86.1142L29.7854 83.8858C28.471 80.5997 27.2635 77.3072 26.0389 73.9674L20.4057 76.0329ZM20.43 76.0969L20.43 76.0971L26.0145 73.9032L26.0145 73.903L20.43 76.0969ZM12.3167 56.3416C15.5631 62.8344 17.9535 69.3453 20.4056 76.0328L26.0389 73.9672C23.602 67.3214 21.1036 60.499 17.6833 53.6584L12.3167 56.3416ZM5 49C7.98854 49 10.2831 51.2855 12.2146 56.1142L17.7854 53.8858C15.7169 48.7145 12.0115 43 5 43V49Z" fill="#2D9CDB" mask="url(#path-1-outside-1)"/>
</svg>
