<svg width="30" height="30" viewBox="0 0 30 30" fill="none" xmlns="http://www.w3.org/2000/svg">
<g clip-path="url(#clip0)">
<path d="M29.8092 13.2353C29.5549 12.981 29.1414 12.981 28.887 13.2353L15.0007 27.1217L1.11298 13.2353C0.858626 12.981 0.445118 12.981 0.190765 13.2353C-0.0635883 13.4897 -0.0635883 13.9032 0.190765 14.1575L14.5389 28.5057C14.6668 28.6322 14.8337 28.6962 15.0007 28.6962C15.1677 28.6962 15.3346 28.6323 15.4611 28.5057L29.8093 14.1575C30.0636 13.9031 30.0636 13.4897 29.8092 13.2353Z" fill="#FF4893"/>
<path d="M29.8092 1.4946C29.5549 1.24024 29.1414 1.24024 28.887 1.4946L15.0007 15.3823L1.11298 1.49594C0.858626 1.24159 0.445118 1.24159 0.190765 1.49594C-0.0635883 1.7503 -0.0635883 2.1638 0.190765 2.41816L14.5389 16.7663C14.6668 16.8928 14.8337 16.9568 15.0007 16.9568C15.1677 16.9568 15.3346 16.8929 15.4611 16.765L29.8092 2.41681C30.0636 2.16246 30.0636 1.74895 29.8092 1.4946Z" fill="#FF4893"/>
</g>
<defs>
<clipPath id="clip0">
<rect width="30" height="30" fill="white"/>
</clipPath>
</defs>
</svg>
