<svg width="458" height="217" viewBox="0 0 458 217" fill="none" xmlns="http://www.w3.org/2000/svg">
<path d="M69.5784 52C67.2744 52 65.7624 51.832 65.0424 51.496C64.3224 51.16 63.8184 50.584 63.5304 49.768L47.6184 5.848C47.6184 4.936 49.3224 3.88 52.7304 2.68C56.1864 1.48 59.6664 0.879997 63.1704 0.879997C67.6824 0.879997 70.0824 2.296 70.3704 5.128L72.8184 27.952H73.8264L75.8424 5.128C76.0824 2.296 79.3224 0.879997 85.5624 0.879997C87.9624 0.879997 89.5704 1.216 90.3864 1.888C91.2024 2.512 91.6584 3.352 91.7544 4.408L94.1304 27.952H95.1384L97.0104 5.128C97.1544 3.736 98.7864 2.68 101.906 1.96C105.074 1.24 108.194 0.879997 111.266 0.879997C114.386 0.879997 116.498 1.336 117.602 2.248C118.754 3.16 119.33 4.12 119.33 5.128L103.922 49.768C103.394 51.256 99.8424 52 93.2664 52C91.2984 52 89.9784 51.832 89.3064 51.496C88.6344 51.16 88.1784 50.584 87.9384 49.768L84.1944 37.24H83.3304L79.5144 49.768C79.0824 51.256 75.7704 52 69.5784 52ZM159.407 52H128.879C126.527 52 124.943 51.832 124.127 51.496C123.311 51.16 122.903 50.632 122.903 49.912V4.336C122.903 3.088 123.455 2.2 124.559 1.672C125.711 1.144 127.751 0.879997 130.679 0.879997H159.623C160.631 0.879997 161.135 2.56 161.135 5.92C161.135 9.232 160.919 11.776 160.487 13.552C160.055 15.28 159.479 16.144 158.759 16.144C155.639 16.144 150.383 15.832 142.991 15.208V20.032C150.095 19.744 154.727 19.6 156.887 19.6C158.183 19.6 158.831 21.112 158.831 24.136C158.831 27.16 158.567 29.464 158.039 31.048C157.559 32.584 156.887 33.352 156.023 33.352L142.991 33.064V37.672C151.343 37.048 157.103 36.736 160.271 36.736C161.279 36.736 161.783 38.416 161.783 41.776C161.783 45.136 161.567 47.68 161.135 49.408C160.703 51.136 160.127 52 159.407 52ZM172.897 52C170.497 52 168.889 51.88 168.073 51.64C167.257 51.352 166.849 50.896 166.849 50.272V5.488C166.849 4.432 168.241 3.4 171.025 2.392C173.809 1.336 176.929 0.807998 180.385 0.807998C183.457 0.807998 185.473 1.456 186.433 2.752C186.769 3.232 186.937 3.712 186.937 4.192V36.088C192.793 35.704 197.209 35.512 200.185 35.512C201.193 35.512 201.697 37.12 201.697 40.336C201.697 43.504 201.481 46.24 201.049 48.544C200.617 50.848 200.041 52 199.321 52H172.897ZM242.085 51.496C240.165 51.928 238.197 52.216 236.181 52.36C234.213 52.552 232.269 52.648 230.349 52.648C228.477 52.648 227.013 52.6 225.957 52.504C224.949 52.408 223.605 52.168 221.925 51.784C220.245 51.4 218.709 50.872 217.317 50.2C215.925 49.528 214.437 48.544 212.853 47.248C211.317 45.952 210.021 44.416 208.965 42.64C206.517 38.512 205.293 33.184 205.293 26.656C205.293 22.288 205.965 18.424 207.309 15.064C208.701 11.704 210.357 9.112 212.277 7.288C214.245 5.464 216.477 4 218.973 2.896C223.005 1.072 227.061 0.159998 231.141 0.159998C236.997 0.159998 241.197 0.639997 243.741 1.6C244.893 2.032 245.925 2.704 246.837 3.616C247.749 4.528 248.205 5.848 248.205 7.576C248.205 9.304 247.773 11.488 246.909 14.128C246.093 16.768 244.893 18.088 243.309 18.088C242.829 18.088 241.053 17.704 237.981 16.936C234.909 16.168 232.821 15.784 231.717 15.784C230.037 15.784 228.597 16.72 227.397 18.592C226.245 20.464 225.669 23.128 225.669 26.584C225.669 30.04 226.173 32.728 227.181 34.648C228.237 36.568 229.605 37.528 231.285 37.528C232.485 37.528 234.645 37.048 237.765 36.088C240.933 35.08 242.781 34.576 243.309 34.576C244.797 34.576 245.949 35.944 246.765 38.68C247.629 41.416 248.061 43.624 248.061 45.304C248.061 46.984 247.533 48.328 246.477 49.336C245.469 50.296 244.005 51.016 242.085 51.496ZM277.599 52.648C273.615 52.648 270.183 52.288 267.303 51.568C264.471 50.8 261.855 49.456 259.455 47.536C254.607 43.744 252.183 36.472 252.183 25.72C252.183 21.208 252.831 17.272 254.127 13.912C255.471 10.552 257.319 7.888 259.671 5.92C264.279 2.08 270.255 0.159998 277.599 0.159998C281.391 0.159998 284.679 0.495998 287.463 1.168C290.295 1.84 292.959 3.064 295.455 4.84C300.495 8.488 303.015 15.448 303.015 25.72C303.015 34.936 300.735 41.728 296.175 46.096C291.615 50.464 285.423 52.648 277.599 52.648ZM275.223 40.336C275.799 41.008 276.591 41.344 277.599 41.344C278.607 41.344 279.399 41.008 279.975 40.336C280.551 39.616 281.031 38.128 281.415 35.872C281.799 33.568 281.991 30.376 281.991 26.296C281.991 22.216 281.799 19.072 281.415 16.864C281.031 14.656 280.551 13.216 279.975 12.544C279.399 11.872 278.607 11.536 277.599 11.536C276.591 11.536 275.799 11.872 275.223 12.544C274.647 13.216 274.167 14.656 273.783 16.864C273.399 19.072 273.207 22.216 273.207 26.296C273.207 30.376 273.399 33.568 273.783 35.872C274.167 38.128 274.647 39.616 275.223 40.336ZM318.773 52C317.573 52 315.821 52 313.517 52C311.261 52 309.725 51.832 308.909 51.496C308.093 51.16 307.685 50.632 307.685 49.912V4.48C307.685 3.376 309.149 2.512 312.077 1.888C315.053 1.216 318.221 0.879997 321.581 0.879997C324.941 0.879997 327.341 1.312 328.781 2.176C330.221 3.04 331.061 3.952 331.301 4.912L336.197 23.92H336.845L341.453 5.776C341.789 4.48 343.349 3.352 346.133 2.392C348.965 1.384 352.061 0.879997 355.421 0.879997C358.781 0.879997 361.253 1.144 362.837 1.672C364.469 2.2 365.285 2.872 365.285 3.688V49.912C365.285 50.536 363.917 51.04 361.181 51.424C358.445 51.808 355.109 52 351.173 52C347.237 52 345.269 51.304 345.269 49.912C345.269 46.12 345.677 39.376 346.493 29.68H345.845L342.101 48.472C341.957 49.192 341.357 49.72 340.301 50.056C339.293 50.392 337.757 50.56 335.693 50.56C333.629 50.56 332.357 50.416 331.877 50.128C331.445 49.84 331.157 49.288 331.013 48.472L327.125 29.68H326.477C327.341 39.568 327.773 46.312 327.773 49.912C327.773 51.16 324.773 51.856 318.773 52ZM407.54 52H377.012C374.66 52 373.076 51.832 372.26 51.496C371.444 51.16 371.036 50.632 371.036 49.912V4.336C371.036 3.088 371.588 2.2 372.692 1.672C373.844 1.144 375.884 0.879997 378.812 0.879997H407.756C408.764 0.879997 409.268 2.56 409.268 5.92C409.268 9.232 409.052 11.776 408.62 13.552C408.188 15.28 407.612 16.144 406.892 16.144C403.772 16.144 398.516 15.832 391.124 15.208V20.032C398.228 19.744 402.86 19.6 405.02 19.6C406.316 19.6 406.964 21.112 406.964 24.136C406.964 27.16 406.7 29.464 406.172 31.048C405.692 32.584 405.02 33.352 404.156 33.352L391.124 33.064V37.672C399.476 37.048 405.236 36.736 408.404 36.736C409.412 36.736 409.916 38.416 409.916 41.776C409.916 45.136 409.7 47.68 409.268 49.408C408.836 51.136 408.26 52 407.54 52ZM212.32 132.272C212.32 132.8 210.832 133.232 207.856 133.568C204.928 133.856 201.976 134 199 134C196.072 134 194.2 133.88 193.384 133.64C192.616 133.352 192.232 132.896 192.232 132.272V101.312H182.224C181.696 101.312 181.24 100.64 180.856 99.296C180.472 97.952 180.28 95.96 180.28 93.32C180.28 90.632 180.568 88.232 181.144 86.12C181.72 83.96 182.488 82.88 183.448 82.88H222.4C223.12 82.88 223.6 83.552 223.84 84.896C224.128 86.24 224.272 88.184 224.272 90.728C224.272 93.272 224.008 95.672 223.48 97.928C222.952 100.184 222.232 101.312 221.32 101.312H212.32V132.272ZM252.954 134.648C248.97 134.648 245.538 134.288 242.658 133.568C239.826 132.8 237.21 131.456 234.81 129.536C229.962 125.744 227.538 118.472 227.538 107.72C227.538 103.208 228.186 99.272 229.482 95.912C230.826 92.552 232.674 89.888 235.026 87.92C239.634 84.08 245.61 82.16 252.954 82.16C256.746 82.16 260.034 82.496 262.818 83.168C265.65 83.84 268.314 85.064 270.81 86.84C275.85 90.488 278.37 97.448 278.37 107.72C278.37 116.936 276.09 123.728 271.53 128.096C266.97 132.464 260.778 134.648 252.954 134.648ZM250.578 122.336C251.154 123.008 251.946 123.344 252.954 123.344C253.962 123.344 254.754 123.008 255.33 122.336C255.906 121.616 256.386 120.128 256.77 117.872C257.154 115.568 257.346 112.376 257.346 108.296C257.346 104.216 257.154 101.072 256.77 98.864C256.386 96.656 255.906 95.216 255.33 94.544C254.754 93.872 253.962 93.536 252.954 93.536C251.946 93.536 251.154 93.872 250.578 94.544C250.002 95.216 249.522 96.656 249.138 98.864C248.754 101.072 248.562 104.216 248.562 108.296C248.562 112.376 248.754 115.568 249.138 117.872C249.522 120.128 250.002 121.616 250.578 122.336ZM5.4405 183.528C4.0965 183.528 2.9205 181.944 1.9125 178.776C0.9525 175.608 0.4725 172.56 0.4725 169.632C0.4725 168.96 1.2165 168.216 2.7045 167.4C4.1925 166.536 6.4485 165.768 9.4725 165.096C12.4965 164.424 15.7845 164.088 19.3365 164.088C33.1125 164.088 40.0005 168.912 40.0005 178.56C40.0005 181.248 39.4245 183.768 38.2725 186.12C37.1205 188.472 35.8485 190.368 34.4565 191.808C33.0645 193.2 31.4325 194.496 29.5605 195.696C27.4005 197.04 25.3365 198.096 23.3685 198.864H37.7685C38.0565 198.864 38.3685 199.008 38.7045 199.296C39.0405 199.536 39.4005 200.304 39.7845 201.6C40.1685 202.848 40.3605 204.432 40.3605 206.352C40.3605 208.224 40.2405 209.808 40.0005 211.104C39.7605 212.352 39.4725 213.264 39.1365 213.84C38.4165 215.136 37.7685 215.832 37.1925 215.928L36.8325 216H5.2965C2.2725 216 0.7605 211.272 0.7605 201.816C0.7605 200.76 3.8805 197.856 10.1205 193.104C12.4725 191.376 14.6325 189.48 16.6005 187.416C18.5685 185.352 19.5525 183.672 19.5525 182.376C19.5525 180.936 18.4725 180.216 16.3125 180.216C14.1525 180.216 11.8725 180.768 9.4725 181.872C7.1205 182.976 5.7765 183.528 5.4405 183.528ZM65.5071 213.912C65.5071 214.536 64.0191 215.04 61.0431 215.424C58.1151 215.808 55.1871 216 52.2591 216C49.3311 216 47.4591 215.832 46.6431 215.496C45.8271 215.16 45.4191 214.632 45.4191 213.912V169.704C45.4191 168.504 46.7871 167.4 49.5231 166.392C52.3071 165.384 55.4511 164.88 58.9551 164.88C60.2031 164.88 61.1391 164.928 61.7631 165.024C63.3951 165.264 64.5471 166.296 65.2191 168.12L72.1311 186.696H72.4191V169.704C72.4191 168.504 73.7871 167.4 76.5231 166.392C79.2591 165.384 82.3791 164.88 85.8831 164.88C88.9071 164.88 90.8271 165.456 91.6431 166.608C92.2191 167.424 92.5071 168.168 92.5071 168.84V213.912C92.5071 214.536 91.0191 215.04 88.0431 215.424C85.1151 215.808 81.8751 216 78.3231 216C74.8191 216 72.8991 215.544 72.5631 214.632L65.8671 196.92H65.5071V213.912ZM121.262 216H104.27C101.918 216 100.334 215.832 99.5181 215.496C98.7021 215.16 98.2941 214.608 98.2941 213.84V168.408C98.2941 167.16 98.8221 166.272 99.8781 165.744C100.934 165.168 102.758 164.88 105.35 164.88H121.55C130.766 164.88 137.126 166.704 140.63 170.352C144.134 173.952 145.886 180.528 145.886 190.08C145.886 199.632 144.062 206.352 140.414 210.24C136.766 214.08 130.382 216 121.262 216ZM120.686 175.608C119.534 175.608 118.766 175.704 118.382 175.896V204.984L121.118 205.272C122.558 205.272 123.638 204.12 124.358 201.816C125.126 199.512 125.51 195.528 125.51 189.864C125.51 184.2 125.126 180.408 124.358 178.488C123.59 176.568 122.366 175.608 120.686 175.608ZM171.046 213.768C171.046 214.392 169.558 214.896 166.582 215.28C163.654 215.664 160.726 215.856 157.798 215.856C154.87 215.856 152.998 215.688 152.182 215.352C151.366 215.016 150.958 214.488 150.958 213.768V169.632C150.958 168.384 152.302 167.28 154.99 166.32C157.726 165.36 160.87 164.88 164.422 164.88C167.35 164.88 169.246 165.456 170.11 166.608C170.734 167.424 171.046 168.168 171.046 168.84V180.72H171.622C171.622 180.48 172.342 178.488 173.782 174.744C176.518 167.688 178.51 164.16 179.758 164.16C182.11 164.16 185.422 164.856 189.694 166.248C191.758 166.92 193.534 167.904 195.022 169.2C196.51 170.448 197.254 171.84 197.254 173.376C197.254 174.336 196.27 176.208 194.302 178.992C192.382 181.728 189.454 185.4 185.518 190.008C186.43 190.968 187.582 192.192 188.974 193.68C190.366 195.168 192.214 197.4 194.518 200.376C196.87 203.304 198.046 205.392 198.046 206.64C198.046 207.888 196.918 209.352 194.662 211.032C192.406 212.664 190.006 214.008 187.462 215.064C184.918 216.072 183.022 216.576 181.774 216.576C180.958 216.576 179.83 215.352 178.39 212.904C176.998 210.408 175.294 206.688 173.278 201.744L171.046 204.408V213.768ZM226.341 216.648C222.357 216.648 218.925 216.288 216.045 215.568C213.213 214.8 210.597 213.456 208.197 211.536C203.349 207.744 200.925 200.472 200.925 189.72C200.925 185.208 201.573 181.272 202.869 177.912C204.213 174.552 206.061 171.888 208.413 169.92C213.021 166.08 218.997 164.16 226.341 164.16C230.133 164.16 233.421 164.496 236.205 165.168C239.037 165.84 241.701 167.064 244.197 168.84C249.237 172.488 251.757 179.448 251.757 189.72C251.757 198.936 249.477 205.728 244.917 210.096C240.357 214.464 234.165 216.648 226.341 216.648ZM223.965 204.336C224.541 205.008 225.333 205.344 226.341 205.344C227.349 205.344 228.141 205.008 228.717 204.336C229.293 203.616 229.773 202.128 230.157 199.872C230.541 197.568 230.733 194.376 230.733 190.296C230.733 186.216 230.541 183.072 230.157 180.864C229.773 178.656 229.293 177.216 228.717 176.544C228.141 175.872 227.349 175.536 226.341 175.536C225.333 175.536 224.541 175.872 223.965 176.544C223.389 177.216 222.909 178.656 222.525 180.864C222.141 183.072 221.949 186.216 221.949 190.296C221.949 194.376 222.141 197.568 222.525 199.872C222.909 202.128 223.389 203.616 223.965 204.336ZM262.475 216C260.075 216 258.467 215.88 257.651 215.64C256.835 215.352 256.427 214.896 256.427 214.272V169.488C256.427 168.432 257.819 167.4 260.603 166.392C263.387 165.336 266.507 164.808 269.963 164.808C273.035 164.808 275.051 165.456 276.011 166.752C276.347 167.232 276.515 167.712 276.515 168.192V200.088C282.371 199.704 286.787 199.512 289.763 199.512C290.771 199.512 291.275 201.12 291.275 204.336C291.275 207.504 291.059 210.24 290.627 212.544C290.195 214.848 289.619 216 288.899 216H262.475ZM332.095 216H301.567C299.215 216 297.631 215.832 296.815 215.496C295.999 215.16 295.591 214.632 295.591 213.912V168.336C295.591 167.088 296.143 166.2 297.247 165.672C298.399 165.144 300.439 164.88 303.367 164.88H332.311C333.319 164.88 333.823 166.56 333.823 169.92C333.823 173.232 333.607 175.776 333.175 177.552C332.743 179.28 332.167 180.144 331.447 180.144C328.327 180.144 323.071 179.832 315.679 179.208V184.032C322.783 183.744 327.415 183.6 329.575 183.6C330.871 183.6 331.519 185.112 331.519 188.136C331.519 191.16 331.255 193.464 330.727 195.048C330.247 196.584 329.575 197.352 328.711 197.352L315.679 197.064V201.672C324.031 201.048 329.791 200.736 332.959 200.736C333.967 200.736 334.471 202.416 334.471 205.776C334.471 209.136 334.255 211.68 333.823 213.408C333.391 215.136 332.815 216 332.095 216ZM359.624 213.768C359.624 214.392 358.136 214.896 355.16 215.28C352.232 215.664 349.304 215.856 346.376 215.856C343.448 215.856 341.576 215.688 340.76 215.352C339.944 215.016 339.536 214.488 339.536 213.768V169.632C339.536 168.384 340.88 167.28 343.568 166.32C346.304 165.36 349.448 164.88 353 164.88C355.928 164.88 357.824 165.456 358.688 166.608C359.312 167.424 359.624 168.168 359.624 168.84V180.72H360.2C360.2 180.48 360.92 178.488 362.36 174.744C365.096 167.688 367.088 164.16 368.336 164.16C370.688 164.16 374 164.856 378.272 166.248C380.336 166.92 382.112 167.904 383.6 169.2C385.088 170.448 385.832 171.84 385.832 173.376C385.832 174.336 384.848 176.208 382.88 178.992C380.96 181.728 378.032 185.4 374.096 190.008C375.008 190.968 376.16 192.192 377.552 193.68C378.944 195.168 380.792 197.4 383.096 200.376C385.448 203.304 386.624 205.392 386.624 206.64C386.624 207.888 385.496 209.352 383.24 211.032C380.984 212.664 378.584 214.008 376.04 215.064C373.496 216.072 371.6 216.576 370.352 216.576C369.536 216.576 368.408 215.352 366.968 212.904C365.576 210.408 363.872 206.688 361.856 201.744L359.624 204.408V213.768ZM427.231 212.976C425.791 214.032 423.775 214.92 421.183 215.64C418.639 216.312 415.327 216.648 411.247 216.648C407.215 216.648 403.375 216.312 399.727 215.64C396.079 214.968 393.463 214.224 391.879 213.408C390.295 212.592 389.503 211.8 389.503 211.032C389.503 208.344 389.887 205.56 390.655 202.68C391.423 199.752 392.335 198.288 393.391 198.288C393.583 198.288 395.575 198.936 399.367 200.232C403.159 201.528 406.015 202.176 407.935 202.176C409.855 202.176 411.103 201.984 411.679 201.6C412.255 201.168 412.543 200.568 412.543 199.8C412.543 199.032 412.015 198.36 410.959 197.784C409.903 197.16 408.583 196.632 406.999 196.2C405.415 195.72 403.687 195.048 401.815 194.184C399.991 193.32 398.287 192.36 396.703 191.304C395.119 190.248 393.799 188.76 392.743 186.84C391.687 184.872 391.159 182.64 391.159 180.144C391.159 169.488 397.519 164.16 410.239 164.16C414.991 164.16 419.095 164.472 422.551 165.096C426.007 165.672 428.431 166.344 429.823 167.112C431.263 167.832 431.983 168.552 431.983 169.272C431.983 171.768 431.383 174.456 430.183 177.336C429.031 180.216 427.903 181.656 426.799 181.656C426.607 181.656 425.983 181.44 424.927 181.008C421.759 179.616 419.119 178.92 417.007 178.92C414.943 178.92 413.527 179.112 412.759 179.496C412.039 179.88 411.679 180.48 411.679 181.296C411.679 182.064 412.207 182.712 413.263 183.24C414.319 183.72 415.615 184.176 417.151 184.608C418.735 184.992 420.439 185.616 422.263 186.48C424.135 187.296 425.863 188.28 427.447 189.432C429.031 190.536 430.351 192.12 431.407 194.184C432.463 196.248 432.991 198.648 432.991 201.384C432.991 204.264 432.247 206.88 430.759 209.232C429.847 210.672 428.671 211.92 427.231 212.976ZM457.781 214.272C457.781 214.8 456.317 215.232 453.389 215.568C450.461 215.856 447.509 216 444.533 216C441.605 216 439.733 215.88 438.917 215.64C438.101 215.352 437.693 214.896 437.693 214.272V169.488C437.693 168.432 439.085 167.4 441.869 166.392C444.653 165.336 447.773 164.808 451.229 164.808C454.301 164.808 456.317 165.456 457.277 166.752C457.613 167.232 457.781 167.712 457.781 168.192V214.272Z" fill="white"/>
</svg>
